<?xml version="1.0" standalone="no"?><!DOCTYPE svg PUBLIC "-//W3C//DTD SVG 1.1//EN" "http://www.w3.org/Graphics/SVG/1.1/DTD/svg11.dtd"><svg t="1600269933197" class="icon" viewBox="0 0 1024 1024" version="1.1" xmlns="http://www.w3.org/2000/svg" p-id="2739" xmlns:xlink="http://www.w3.org/1999/xlink" width="256" height="256"><defs><style type="text/css"></style></defs><path d="M512 0C230.4 0 0 230.4 0 512s230.4 512 512 512 512-230.4 512-512S793.6 0 512 0z m256 544h-224v224c0 19.2-12.8 32-32 32s-32-12.8-32-32v-224H256c-19.2 0-32-12.8-32-32s12.8-32 32-32h224V256c0-19.2 12.8-32 32-32s32 12.8 32 32v224h224c19.2 0 32 12.8 32 32s-12.8 32-32 32z" fill="#fc4482" p-id="2740"></path></svg>