<?xml version="1.0" standalone="no"?><!DOCTYPE svg PUBLIC "-//W3C//DTD SVG 1.1//EN" "http://www.w3.org/Graphics/SVG/1.1/DTD/svg11.dtd"><svg t="1562862031831" class="icon" viewBox="0 0 1024 1024" version="1.1" xmlns="http://www.w3.org/2000/svg" p-id="2919" xmlns:xlink="http://www.w3.org/1999/xlink" width="200" height="200"><defs><style type="text/css"></style></defs><path d="M518.981818 1007.709091c-4.654545 0-11.636364-2.327273-16.290909-4.654546L193.163636 814.545455c-11.636364-6.981818-16.290909-18.618182-13.963636-32.581819L279.272727 323.490909c0-4.654545 2.327273-9.309091 4.654546-11.636364l211.781818-283.927272c9.309091-13.963636 27.927273-16.290909 41.890909-6.981818 13.963636 9.309091 16.290909 27.927273 6.981818 41.890909L342.109091 337.454545l207.127273 630.69091c4.654545 11.636364 0 25.6-9.309091 32.581818-6.981818 4.654545-13.963636 6.981818-20.945455 6.981818z m-274.618182-232.727273l221.090909 134.981818-151.272727-463.127272-69.818182 328.145454z" fill="#d4237a" p-id="2920"></path><path d="M518.981818 1007.709091c-6.981818 0-13.963636-2.327273-18.618182-6.981818-9.309091-6.981818-13.963636-20.945455-9.309091-32.581818L698.181818 337.454545 495.709091 65.163636c-9.309091-13.963636-6.981818-32.581818 6.981818-41.890909 13.963636-9.309091 32.581818-6.981818 41.890909 6.981818l211.781818 283.927273c2.327273 4.654545 4.654545 6.981818 4.654546 11.636364l97.745454 458.472727c2.327273 11.636364-2.327273 25.6-13.963636 32.581818l-309.527273 186.181818c-4.654545 2.327273-9.309091 4.654545-16.290909 4.654546z m207.127273-560.872727L574.836364 907.636364l221.090909-134.981819-69.818182-325.818181z" fill="#d4237a" p-id="2921"></path></svg>