<?xml version="1.0" standalone="no"?><!DOCTYPE svg PUBLIC "-//W3C//DTD SVG 1.1//EN" "http://www.w3.org/Graphics/SVG/1.1/DTD/svg11.dtd"><svg t="1599929045997" class="icon" viewBox="0 0 1024 1024" version="1.1" xmlns="http://www.w3.org/2000/svg" p-id="4860" xmlns:xlink="http://www.w3.org/1999/xlink" width="256" height="256"><defs><style type="text/css"></style></defs><path d="M893.672727 297.890909l-51.2-51.2-83.781818-83.781818-51.2-51.2 41.890909-41.890909 186.181818 186.181818-41.890909 41.890909z m-116.363636-27.927273L465.454545 581.818182l-41.890909-41.890909 311.854546-311.854546 37.236363 37.236364 4.654546 4.654545zM395.636364 893.672727c-79.127273 79.127273-200.145455 79.127273-279.272728 0-79.127273-79.127273-79.127273-204.8 0-279.272727l153.6-153.6 116.363637 116.363636-144.290909 144.290909c-9.309091 4.654545-13.963636 13.963636-13.963637 23.272728s4.654545 13.963636 9.309091 18.618182c4.654545 4.654545 13.963636 9.309091 18.618182 9.30909 9.309091 0 13.963636-4.654545 18.618182-9.30909L418.909091 619.054545l125.672727 125.672728-148.945454 148.945454zM996.072727 237.381818L768 9.309091c-9.309091-9.309091-27.927273-9.309091-41.890909 0L642.327273 93.090909c-4.654545 4.654545-9.309091 13.963636-9.309091 18.618182 0 9.309091 4.654545 13.963636 9.309091 18.618182L698.181818 186.181818l-311.854545 311.854546-97.745455-97.745455c-9.309091-9.309091-27.927273-9.309091-41.890909 0l-172.218182 172.218182c-97.745455 97.745455-97.745455 260.654545 0 363.054545 51.2 51.2 116.363636 74.472727 181.527273 74.472728s130.327273-23.272727 181.527273-74.472728l172.218182-172.218181c4.654545-4.654545 9.309091-13.963636 9.30909-18.618182 0-9.309091-4.654545-13.963636-9.30909-18.618182l-102.4-102.4 311.854545-311.854546 51.2 51.2c4.654545 4.654545 13.963636 9.309091 18.618182 9.309091 9.309091 0 13.963636-4.654545 18.618182-9.309091L996.072727 279.272727c4.654545-4.654545 9.309091-13.963636 9.309091-18.618182 0-9.309091-4.654545-18.618182-9.309091-23.272727z" fill="#fcfcfc" p-id="4861"></path></svg>