<?xml version="1.0" standalone="no"?><!DOCTYPE svg PUBLIC "-//W3C//DTD SVG 1.1//EN" "http://www.w3.org/Graphics/SVG/1.1/DTD/svg11.dtd"><svg t="1596341118378" class="icon" viewBox="0 0 1024 1024" version="1.1" xmlns="http://www.w3.org/2000/svg" p-id="17413" xmlns:xlink="http://www.w3.org/1999/xlink" width="256" height="256"><defs><style type="text/css"></style></defs><path d="M738.091318 285.436938c-60.381206-60.248176-140.453892-93.530187-225.87847-93.530187-85.422532 0-165.565826 33.142841-225.944985 93.530187-60.313667 60.389392-93.591585 140.467195-93.591585 225.904053s33.142841 165.585269 93.520977 225.973638c60.381206 60.247152 140.656507 93.527117 225.948055 93.527117 85.285408 0 165.564803-33.280987 225.944985-93.461625 60.239989-60.385299 93.520977-140.53678 93.520977-225.970568S798.46843 345.82633 738.091318 285.436938zM707.159842 706.512089C655.013181 758.559489 585.754794 787.150664 512.147356 787.150664s-142.937456-28.461215-195.019649-80.638575c-52.078099-52.17736-80.69281-121.391744-80.69281-194.946994 0-73.556273 27.993564-143.401014 80.69281-194.880479 91.969645-89.841168 195.019649-80.638575 195.019649-80.638575 73.607438 0 142.934386 28.592198 195.012486 80.704067 52.081169 52.111868 80.694857 121.324206 80.694857 194.881502S759.311619 654.470829 707.159842 706.512089z" p-id="17414"></path><path d="M340.05079 472.701972c0 0.708128 0.036839 1.406023 0.100284 2.097778 0.004093 0.038886 0.005117 0.077771 0.00921 0.116657 0.066515 0.691755 0.167822 1.373277 0.295735 2.045589 0.008186 0.042979 0.014326 0.085958 0.023536 0.128937 0.132006 0.674359 0.295735 1.336438 0.485047 1.987261 0.01535 0.054235 0.029676 0.107447 0.046049 0.161682 0.192382 0.642636 0.414439 1.272993 0.661056 1.890047 0.028653 0.072655 0.056282 0.144286 0.085958 0.216941 0.249687 0.605797 0.525979 1.197268 0.823761 1.775436 0.044002 0.084934 0.085958 0.170892 0.130983 0.255827 0.308015 0.578168 0.641613 1.13894 0.995677 1.685385 0.051165 0.079818 0.100284 0.159636 0.153496 0.23843 0.38067 0.571005 0.786922 1.121544 1.216711 1.654686 0.039909 0.049119 0.075725 0.099261 0.115634 0.147356 0.479931 0.585331 0.986467 1.14815 1.520633 1.682315 0 0 0.001023 0.001023 0.001023 0.001023 0 0 0.001023 0.001023 0.001023 0.001023 0.534166 0.534166 1.096984 1.041726 1.682315 1.520633 0.048095 0.039909 0.097214 0.075725 0.145309 0.11461 0.533143 0.429789 1.084705 0.837064 1.655709 1.217734 0.078795 0.052189 0.159636 0.101307 0.23843 0.153496 0.546446 0.355087 1.108241 0.688685 1.686409 0.9967 0.083911 0.045025 0.169869 0.086981 0.254803 0.12996 0.579191 0.298805 1.170662 0.575098 1.777483 0.824785 0.071631 0.029676 0.143263 0.056282 0.214894 0.084934 0.618077 0.246617 1.248434 0.468674 1.892093 0.662079 0.053212 0.016373 0.106424 0.029676 0.159636 0.045025 0.651846 0.190335 1.313925 0.354064 1.988284 0.485047 0.042979 0.008186 0.085958 0.014326 0.127913 0.022513 0.672312 0.127913 1.354857 0.228197 2.046612 0.295735 0.037862 0.004093 0.075725 0.005117 0.113587 0.008186 0.691755 0.063445 1.391696 0.100284 2.099824 0.100284l294.592458 0c12.565177 0 22.750143-10.18599 22.750143-22.751167 0-12.565177-10.18599-22.750143-22.750143-22.750143l-239.668545 0 62.174038-62.176085c8.884344-8.884344 8.884344-23.289426-0.001023-32.17377-8.884344-8.884344-23.289426-8.884344-32.17377 0.001023l-101.009532 101.013625c0 0-0.001023 0.001023-0.001023 0.001023-0.534166 0.534166-1.040702 1.096984-1.520633 1.682315-0.039909 0.048095-0.076748 0.098237-0.115634 0.147356-0.428765 0.533143-0.836041 1.083681-1.216711 1.654686-0.052189 0.078795-0.101307 0.159636-0.153496 0.23843-0.354064 0.546446-0.688685 1.108241-0.995677 1.685385-0.045025 0.084934-0.086981 0.170892-0.130983 0.255827-0.298805 0.578168-0.575098 1.169639-0.824785 1.77646-0.029676 0.071631-0.056282 0.143263-0.084934 0.214894-0.246617 0.618077-0.468674 1.248434-0.661056 1.89107-0.016373 0.054235-0.030699 0.10847-0.046049 0.161682-0.189312 0.650823-0.353041 1.312902-0.485047 1.987261-0.008186 0.042979-0.014326 0.085958-0.022513 0.127913-0.127913 0.672312-0.228197 1.353834-0.295735 2.045589-0.004093 0.038886-0.005117 0.077771-0.00921 0.116657C340.087629 471.293903 340.05079 471.992821 340.05079 472.701972 340.05079 472.700949 340.05079 472.700949 340.05079 472.701972 340.05079 472.700949 340.05079 472.701972 340.05079 472.701972z" p-id="17415"></path><path d="M660.902308 526.335497c-0.186242-0.029676-0.373507-0.055259-0.560772-0.080841-0.411369-0.053212-0.822738-0.102331-1.236154-0.13303-0.511653-0.040932-1.028423-0.066515-1.548262-0.073678-0.070608 0-0.141216-0.005117-0.211824-0.005117-0.031722 0-0.062422-0.002047-0.094144-0.002047L362.656647 526.040784c-12.565177 0-22.750143 10.18599-22.750143 22.751167 0 12.565177 10.18599 22.750143 22.750143 22.750143l239.812831 0-62.174038 62.176085c-8.884344 8.884344-8.884344 23.289426 0.001023 32.174793 8.884344 8.884344 23.289426 8.884344 32.17377-0.001023l101.009532-101.013625c8.884344-8.884344 8.884344-23.289426-0.001023-32.17377C669.934009 529.156752 665.50514 527.050788 660.902308 526.335497z" p-id="17416"></path></svg>