<?xml version="1.0" standalone="no"?><!DOCTYPE svg PUBLIC "-//W3C//DTD SVG 1.1//EN" "http://www.w3.org/Graphics/SVG/1.1/DTD/svg11.dtd"><svg t="1600270129191" class="icon" viewBox="0 0 1024 1024" version="1.1" xmlns="http://www.w3.org/2000/svg" p-id="3532" xmlns:xlink="http://www.w3.org/1999/xlink" width="256" height="256"><defs><style type="text/css"></style></defs><path d="M366.423838 178.612937V13.207691s0.467958-8.776956-16.79485-12.572269c-14.469144-3.177108-28.329473 6.595238-28.329473 6.595237L29.523629 214.127682S2.239628 228.078785 2.239628 255.627285c0 26.906817 19.342796 37.870187 19.342797 37.870187l293.47243 201.392644s18.597819 6.798698 34.441102 3.444736c17.1063-3.623155 16.927881-16.139082 16.927881-16.139082v-154.815929h285.51401s225.114528 30.238868 225.114528 113.691945c0 0-3.784358-262.458849-232.371794-262.458849H366.423838z m292.009083 667.067453v165.561753s3.031556 10.083796 21.396178 12.494016c12.259254 1.613595 19.906224-4.612284 22.582507-6.510723 6.131975-4.352481 292.041949-207.086397 292.04195-207.086397s27.305912-13.962059 27.305912-41.5356c0-26.931859-19.360012-37.904619-19.360012-37.904619L708.660962 529.121497s-12.220127-7.399688-28.830298-3.064422c-20.522865 5.351001-21.397743 15.774419-21.397743 15.774419v154.948961H371.471214S146.154791 666.519676 146.154791 582.988344c0 0 3.784358 262.693611 232.583079 262.693611l279.695051-0.001565z" p-id="3533" fill="#fc4482"></path></svg>